<svg width="39" height="39" viewBox="0 0 39 39" fill="none" xmlns="http://www.w3.org/2000/svg">
<path d="M37.125 18.5209C37.1317 21.1056 36.5278 23.6554 35.3625 25.9626C33.9808 28.7272 31.8566 31.0526 29.2279 32.6782C26.5992 34.3039 23.5699 35.1655 20.4792 35.1667C17.8944 35.1735 15.3446 34.5696 13.0375 33.4042L1.875 37.1251L5.59583 25.9626C4.43049 23.6554 3.82659 21.1056 3.83333 18.5209C3.83453 15.4302 4.6962 12.4008 6.32182 9.77213C7.94745 7.14346 10.2728 5.01929 13.0375 3.63756C15.3446 2.47221 17.8944 1.86832 20.4792 1.87506H21.4583C25.5402 2.10025 29.3955 3.82313 32.2862 6.71382C35.1769 9.60451 36.8998 13.4599 37.125 17.5417V18.5209Z" stroke="#DD71C6" stroke-width="2" stroke-linecap="round" stroke-linejoin="round"/>
</svg>
